<svg xmlns="http://www.w3.org/2000/svg" width="165" height="57"><path d="M40.792 10.6c1.288 1.12 1.064 1.12 1.008 2.184-.392.056-.28.056-.616.112-.28-.168-.728-.28-1.008-.448-.28-.168-.504-.392-.84-.504-.448-.224-1.68-.504-2.24-.56-1.344-.168-1.288-.672-3.528-.56-.28 0-.952-.056-1.344-.056-3.696 0-3.864-.224-8.008.168-.336 0-1.792.168-2.128.336-.224.112-.056.056-.168.224.728.224 1.12.616 1.512 1.232.28.448.392 1.512.392 2.072-.056.672 0 1.176-.112 1.96-.28 1.512-.896 5.824-.84 6.72 0 1.568-.672 6.048-.616 6.664l-.28 4.592c-.336 2.296-.504 10.192.168 11.872-.168.112 0 0-.224.112.224.616.448 1.4.616 2.072.336 1.008.336 1.512 1.008 1.68 0 .672.28.672-.728.896-.56.112-1.176 0-1.568-.224-2.296-1.008-2.912-2.352-3.696-4.2-1.064-2.352-1.232-5.208-1.232-7.952 0-2.128.224-4.256.28-6.216l.336-4.648c.056-.224.168-.336.168-.56.504-3.696 1.008-9.576 1.68-12.768.112-.784.392-1.792-.056-2.464-2.464.448-1.512.392-2.016.504-.448.112-.224-.112-.728.224-.392.056-1.568.336-1.568.672-.336-.056-.672.056-1.064.168l.28.168-6.048 2.296c-1.904.84-.448 0-2.184 1.008-1.848 1.176-1.68 1.736-3.696 1.736-.336-.392-.728-.672-.896-1.064-.168-.336-.224-1.456-.112-1.736.112-.336 1.68-1.4 2.072-1.624 1.4-.896 2.688-1.288 4.2-1.792.896-.28 1.792-.728 2.688-1.008.952-.28 1.792-.672 2.744-1.008 1.848-.616 3.696-1.344 5.656-1.792 2.632-.616 7.392-1.232 10.192-1.12l7 .728 3.696.952 1.848.952zm12.936 34.328l.28.784c-.336.336-.336.392-.728.504-.728.28-1.624.448-2.408.224-1.288-.392-3.528-1.12-4.424-2.24-.784-1.008-1.456-1.4-1.96-3.696-.504-2.576.224-9.296.56-12.264.112-.728 0-1.12-.056-1.848-1.176.784-3.696 5.208-4.144 7.448-.28 1.288.112 1.12-.84 2.744l-.448.784c-.448.896-.504 1.736-.672 2.464-.336 1.4-.448.952-.112 2.8.168.952.056.728 0 1.568-.28 2.856-.616 1.232-1.512 2.072-.336-.28-1.064-.448-2.016-1.064-.728-.448-1.008-1.4-1.232-2.576-.504-2.688-1.12-7.392-1.232-10.136-.056-1.792-.168-4.424-.112-6.216.056-.896.056-1.904.112-2.856.168-2.688.336-3.304.616-5.656.168-1.96.448-3.64.84-5.488.392-1.904.672-3.472 1.232-5.264.392-1.512.672-2.296 1.4-3.584.28-.504.336-.448.672-.896 1.736-2.184 2.632-1.512 4.536-1.4 1.68.112 3.192.896 3.808 2.8.448 1.344.504 4.872.112 6.048-.168.448-.28.84-.392 1.288L44.6 15.024c-.56 1.848-1.288 3.248-1.904 4.76l-3.024 6.832c-1.344 2.352-1.904 2.8-1.792 4.816l.168 3.024c-.112.224-.336-.224 0 .336.448-.056.056 0 .224-.224.616-.728.392-.896.728-1.792.224-.56.168-.56.336-1.064l.728-1.848c.168-.28.336-.56.56-.784.616-.896 2.128-4.2 3.472-4.704 1.008-.336 1.4-.112 2.016.056.672.224 1.064.224 1.568.84.224.28.84 1.288 1.12 1.736.672 1.176.952 3.584.784 4.928l-.112 2.24c0 3.024-.28 2.8-.336 4.648-.112 6.104.448 4.928 2.296 5.824.784.336.224.224 1.176.168.448-.056.616.168 1.12.112zM38.944 14.296c-.056 1.904-1.232 7.56-.84 10.304.56-.504 2.352-5.32 2.744-6.328.224-.448.336-.84.56-1.288l1.792-5.432c.448-2.352 1.176-2.464.84-6.272a5.607 5.607 0 0 0-.448-1.792c-.336-.728-.504-.84-1.232-.616-.952.224-1.456.896-1.68 1.848-.224.672-.504.728-.784 2.464-.112 1.064-.224 1.792-.336 2.8l-.616 4.312zm32.032 14.728c.112.336 0 .392.28.672-.168.784-.168 1.456-.28 1.904-.112.784-.784 1.68-1.12 2.24l-1.12 2.128H68.4l.056.616c-.448 1.232-.56 1.624-1.12 2.52-.28.392-.112.392-.28.728-.336.672-2.52 2.632-3.136 3.024-1.848 1.232-1.456.56-2.576.952-.56.224-.616.448-1.456.448-1.008-.056-3.248-1.12-3.584-1.568-1.176-1.68-.784-.784-1.792-2.632l-.336-.504c-1.12-2.688-.896-5.096-.28-7.896.224-1.008.616-1.848 1.008-2.632.392-1.008.84-1.512 1.344-2.296.616-1.064 2.744-3.08 3.696-3.472.672-.28 2.072.056 2.576.28 1.232.504 1.12 2.632 1.12 2.632 0 .112.504.392.784 1.568.504 2.52-.504 4.2-1.232 5.712l-1.12 1.344c-3.08 2.408-4.088 1.064-5.208 1.12-.56 2.072-.168 6.104 1.96 6.16.224 0 1.68-.28 1.848-.336.616-.224.84-.28 1.4-.616l2.24-1.848c.168-.168.336-.392.504-.56l2.968-4.368c.392-.56.504-.728.896-1.344l2.296-3.976zm-12.712 2.688c-.336.672-.672 1.232-.84 2.016.896 0 1.456-.168 2.072-.56 1.904-1.12 2.632-3.696 2.632-5.88-.448.224-1.176.784-1.512 1.176l-1.848 2.352c-.224.448-.28.448-.504.896zm46.424-1.176c.224.336.112.336.112.56 0 .168-.168.392-.28.672-1.344.336-2.352.672-2.912.672.112.448 1.344 2.52 1.12 4.984-.224 2.184-2.24 5.712-3.92 7.056-.392.28-.224-.056-.672.504-.168.168-.336.392-.56.504-.336.336-.728.728-1.12 1.064-.672.504-1.064.672-1.792 1.008-.28.056-.056 0-.336.112-1.904.616-1.68.84-2.184 1.12-.168.056-.224 0-.448.112-.336.112-.056.056-.28.168l-2.296.952c-.28.168-.448.28-.672.392-.504.224-.28.056-1.064 0-.392.224-1.512.56-2.184.504-.896 0-1.848.112-2.688 0-2.408-.336-2.856-1.344-4.088-2.408l-.28-.28c0-.392 0-.392-.168-.728-.224-.448-.056-.168-.056-.504v-1.512c.056-.056.112 0 .112 0 0-.056.056-.112.056-.168 0-.056.056-.112.056-.168l.056.056c.112-.224.336-.448.448-.896l-.168.168-.056-.28 1.12-1.4c.224-.336.952-1.512 1.064-1.568a29.994 29.994 0 0 0 1.624-1.12h.056v-.056c.112-.112.448-.448.672-.728l.168-.168c.224-.224.392-.448.616-.616l1.568-1.12c.224-.168.112-.168.392-.336l2.184-1.232c.168-.056.336-.112.448-.224 1.176-.784 1.792-1.064 3.192-1.624 1.008-.336 2.072-1.008 2.912-1.232l.336-.224 3.752-1.512c-.112-.392-.28-.448-.56-.784-.168-.224-.112-.168-.224-.336-1.4-1.792-5.04-2.856-7.056-3.64-.952-.336-1.736-.448-2.632-.784L83.24 23.76c-.84-.336-1.344-.784-2.128-1.12-.168-.336-.28-.336-.504-.616-2.072-2.072-1.176-4.144-1.176-4.872l.224-.112c.392-1.512 1.736-2.184 2.8-3.024.28-.224.616-.448.84-.616l.448-.224c.616-.336 1.064-.896 2.464-1.288.728-.224 1.064-.56 2.016-.84 1.792-.504 3.192-1.064 5.264-1.12h.672c.336 0 .448-.056.672-.056.336 0 .392.056.728-.056 1.008.336 1.568.224 2.968 1.12 2.072 1.4 2.968 1.624 4.088 3.192 1.008 1.288.616 1.68.672 2.016l-.336.168c-1.12-.392-2.296-.056-2.968-1.176.28-.224.336-.168.504-.448-.224-.224.28 0-.28-.224-.392-.168-.728-.056-1.12-.056-.504-.056-1.176-.168-1.736-.224-.504-.056-1.064.056-1.512.112l-1.456.112c-1.568.224-1.176.224-2.576.616-1.288.336-3.08 1.008-4.032 1.568l-4.424 2.856c-.336.336-.896 1.512-.952 2.072.616.392 1.68.728 2.52 1.064 1.008.336 1.68.504 2.8.84 2.184.616 5.432 1.848 7.56 2.912 1.736.84 4.088 2.688 4.984 4.144.504-.056.672-.112 1.12-.224l1.456-.336c.28.168.896.112 1.4.168.672.056.224.168.448.448zM84.976 40.28c-.007.004-1.456.784-1.568.896-.112.112-1.232 1.12-1.344 1.288-.056.112-.336.448-.56.672-.224.28-.952 1.176-1.176 1.4-.168.28-.672.952-.728 1.176-.056.28.28.952-.112 1.008-.056.056-.112.056-.112.056 0 .224-.056.448-.056.672l.336 1.176c1.064.448.784.448 1.848.28 2.576-.28 1.96.392 5.152-1.4 1.792-1.064 1.064-.616 2.632-1.736.168-.112.336-.28.616-.448l3.248-2.296c2.576-2.24 5.768-6.496 5.824-9.8-.392 0-2.8 1.008-3.808 1.344-.56.168-.168-.112-.56.168.056-.336.056-.056-.168-.224l-.672.392-3.136 1.4c-.28.168-.448.224-.672.336-.336.168-.392.336-.728.504-1.064.448-.224-.056-1.568.784-.448.28-.896.56-1.344.896-.28.224-.448.336-.672.504-.392.224-.336.168-.728.504-.056.056-.168.112-.28.28.167.111.333.167.336.168zm43.4 4.648l.28.784c-.336.336-.336.392-.728.504-.728.28-1.624.448-2.408.224-1.288-.392-3.528-1.12-4.424-2.24-.784-1.008-1.456-1.4-1.96-3.696-.504-2.576.224-9.296.56-12.264.112-.728 0-1.12-.056-1.848-1.176.784-3.696 5.208-4.144 7.448-.28 1.288.112 1.12-.84 2.744l-.448.784c-.448.896-.504 1.736-.672 2.464-.336 1.4-.448.952-.112 2.8.168.952.056.728 0 1.568-.28 2.856-.616 1.232-1.512 2.072-.336-.28-1.064-.448-2.016-1.064-.728-.448-1.008-1.4-1.232-2.576-.504-2.688-1.12-7.392-1.232-10.136-.056-1.792-.168-4.424-.112-6.216.056-.896.056-1.904.112-2.856.168-2.688.336-3.304.616-5.656.168-1.96.448-3.64.84-5.488.392-1.904.672-3.472 1.232-5.264.392-1.512.672-2.296 1.4-3.584.28-.504.336-.448.672-.896 1.736-2.184 2.632-1.512 4.536-1.4 1.68.112 3.192.896 3.808 2.8.448 1.344.504 4.872.112 6.048-.168.448-.28.84-.392 1.288l-1.008 3.752c-.56 1.848-1.288 3.248-1.904 4.76l-3.024 6.832c-1.344 2.352-1.904 2.8-1.792 4.816l.168 3.024c-.112.224-.336-.224 0 .336.448-.056.056 0 .224-.224.616-.728.392-.896.728-1.792.224-.56.168-.56.336-1.064l.728-1.848c.168-.28.336-.56.56-.784.616-.896 2.128-4.2 3.472-4.704 1.008-.336 1.4-.112 2.016.056.672.224 1.064.224 1.568.84.224.28.84 1.288 1.12 1.736.672 1.176.952 3.584.784 4.928l-.112 2.24c0 3.024-.28 2.8-.336 4.648-.112 6.104.448 4.928 2.296 5.824.784.336.224.224 1.176.168.448-.056.616.168 1.12.112zm-14.784-30.632c-.056 1.904-1.232 7.56-.84 10.304.56-.504 2.352-5.32 2.744-6.328.224-.448.336-.84.56-1.288l1.792-5.432c.448-2.352 1.176-2.464.84-6.272a5.607 5.607 0 0 0-.448-1.792c-.336-.728-.504-.84-1.232-.616-.952.224-1.456.896-1.68 1.848-.224.672-.504.728-.784 2.464-.112 1.064-.224 1.792-.336 2.8l-.616 4.312zm28.336 12.264c.168 1.568.448-.224.448 4.088 0 0-.168.896-.28 1.12-.056.28-.168 1.232-.168 1.232h-.112c-.056.056-.056.112-.056.112 0 .056 0 .056-.056.056v.112c-.168.28-.112-.056-.168.392-.056.336-.112.672-.168.952-.224 1.064-.224 1.008-.616 1.848-.336.84.224.056-.168.728l-1.232 2.24-.336.28c-.168.728-1.624 1.568-1.904 1.792-1.064.84-1.568.616-2.744.84-1.568.336-3.584-1.232-4.48-2.576-2.464-3.696-2.296-7.504-.56-11.648.392-.952 1.288-2.296 1.792-3.08 1.344-2.016.952-1.792 2.688-2.072.112-.504.784-1.848 1.288-2.184.616-.392 2.352-.168 2.912 0 .952.112 1.96 1.176 2.464 1.736.448.504.448.616.84 1.232.448.728.28.728.336 1.736l.224-.224c.056.616-.056.728.056 1.288zm-1.288 1.68c0-1.848-.28-.504-.56-2.856-.112-1.176-.168-1.12-.728-1.96-.28-.448-.672-.952-1.232-1.064l-.056.056-.168.28c-.392.672-.168.28-.336.784-.112.336 0 .056-.168.28 0 .728-.168.392-.336 1.064-.112.336-.056.784-.056 1.288 0 2.52-.112 3.248 1.12 4.48 0 .112.056.224.056.336.112.336.112.28.112.448 0 .168-.112.28-.224.392-.056.112-.336.168-.672.056-.168-.056-.28 0-.392.112-.896-.616-1.792-1.512-2.408-2.184-1.792 2.128-3.192 7.616-1.288 10.64 1.008-.224 2.408-.728 3.08-1.512.28-.28.672-.56.784-.84.28-.168.224.224.224-.392.336-.672.784-1.288 1.176-2.016.336-.504.56-1.12.728-1.736 0 0 .336-.784.336-.896 0-.112.168-.952.168-1.008 0-.056.392-.616.392-.616.392-.672.448-2.24.448-3.136zm24.248-1.68c0 1.848.28 1.064-.168 2.968-.224 1.12-.112 1.512-.784 2.576-.504.728-.784 1.792-1.064 2.24l-.28.392c-.336.336-.168.056-.448.392-.896 1.176-.224.28-.84.84-.168.168-.224.28-.392.448-1.456 1.512-2.968.84-3.64.896-1.008.056-1.68.056-2.408-.616l-.896-.616c.336-.56.224-.28 1.064-.504 2.744-.728 1.792.952 3.808-1.96.952-1.288.784-1.008 1.344-3.024.952-3.528 1.344-6.44.224-10.08l-.84-.168c-.616.56-2.408 2.52-2.688 3.64l-.336-.056.112.28c-.336.224-.112.112-.56.784l-1.288 5.04c-.224.728-.224 1.4-.336 2.24-.168 1.512-.616 2.632-1.064 4.032-.56 1.904-.784 4.76-1.12 6.496-.168.728-.392 1.4-.504 2.016-.168.784-.168 5.152-.392 6.832-.112.896.056 1.456-.056 2.184-.168 1.68.504 3.36-1.624 2.856-1.512-.336-1.904-1.064-2.52-2.464-.672-1.624-.504-2.408-.728-4.032-.504-3.472-.504-5.88-.84-8.848-.336-3.304-.056-5.768-.056-8.792.056-2.408.672-6.216.616-9.128 0 0-.168-.224-.224-.392-.112-.448-.056-.336 0-.84.616-.392 1.008-.168 1.68-.392.392.224.056.168.504.28.56.224.448 0 .952.392 0 0 .168.112.28.168.28.224-.056-.056.168.112.56.28 1.68 1.512 1.568 2.52l-.224 6.552c-.056.784-.28 7.112 0 7.336 0-1.68.896-4.144 1.232-5.656.336-1.456.168-1.904.336-3.248.112-.728.504-2.072.728-2.688.56-1.848.672-3.92 1.568-5.32.84-1.344 1.848-2.856 2.912-3.696 1.456-1.12 3.416-.392 4.648.672 2.016 1.792 2.688 4.424 2.576 7.336z" fill="#57696D" fill-rule="nonzero"/><style xmlns="" type="text/css"/></svg>